<?xml version="1.0" standalone="no"?>
<!DOCTYPE svg PUBLIC "-//W3C//DTD SVG 20010904//EN"
 "http://www.w3.org/TR/2001/REC-SVG-20010904/DTD/svg10.dtd">
<svg version="1.0" xmlns="http://www.w3.org/2000/svg"
 width="260.000000pt" height="260.000000pt" viewBox="0 0 260.000000 260.000000"
 preserveAspectRatio="xMidYMid meet">
<metadata>
Created by potrace 1.14, written by Peter Selinger 2001-2017
</metadata>
<g transform="translate(0.000000,260.000000) scale(0.100000,-0.100000)"
fill="#000000" stroke="none">
<path d="M1196 2569 c2 -4 23 -10 46 -14 58 -10 201 -69 280 -116 206 -122
408 -340 511 -551 47 -98 91 -226 101 -293 4 -23 9 -52 11 -65 7 -35 7 -226
-1 -280 -55 -413 -397 -771 -804 -843 -324 -57 -661 81 -853 349 -45 63 -110
201 -127 269 -84 342 48 685 344 887 65 45 191 109 249 128 51 16 47 23 -10
17 -138 -14 -298 -73 -419 -153 -131 -87 -259 -245 -322 -396 -76 -184 -91
-424 -38 -623 61 -228 205 -449 390 -599 276 -224 669 -311 1031 -229 308 69
590 254 770 504 285 396 318 908 87 1339 -184 343 -519 583 -912 655 -94 17
-343 27 -334 14z"/>
<path d="M878 2420 c-193 -31 -412 -150 -556 -304 -162 -173 -293 -454 -307
-661 l-5 -60 25 67 c13 37 38 96 55 130 170 336 580 597 914 583 141 -6 245
-42 356 -122 58 -42 167 -161 217 -237 177 -269 202 -526 72 -752 -74 -130
-227 -245 -370 -279 -159 -37 -322 5 -441 114 -303 277 -223 794 151 979 68
34 83 37 166 39 54 1 116 -4 151 -13 32 -8 66 -16 76 -18 9 -3 30 -12 48 -21
52 -27 45 -11 -18 42 -86 71 -261 153 -328 153 -47 0 -210 -73 -268 -120 -159
-128 -261 -291 -302 -482 -27 -127 -19 -290 21 -415 75 -237 266 -413 516
-473 59 -15 240 -19 304 -8 197 35 374 147 502 319 176 236 225 543 133 829
-81 252 -270 477 -511 609 -54 30 -204 84 -264 96 -55 11 -279 14 -337 5z"/>
<path d="M1350 1670 c-91 -65 -176 -127 -189 -138 l-25 -19 25 -20 c13 -12 92
-71 174 -133 83 -61 166 -124 185 -140 48 -40 66 -38 81 8 17 56 19 236 3 325
-14 80 -57 202 -78 224 -8 9 -51 -17 -176 -107z"/>
</g>
</svg>
